<?xml version="1.0" encoding="iso-8859-1"?>
<!-- Generator: Adobe Illustrator 19.0.0, SVG Export Plug-In . SVG Version: 6.00 Build 0)  -->
<svg version="1.1" id="Capa_1" xmlns="http://www.w3.org/2000/svg" xmlns:xlink="http://www.w3.org/1999/xlink" x="0px" y="0px"
	 viewBox="0 0 512 512" style="enable-background:new 0 0 512 512;" xml:space="preserve">
<polygon style="fill:#FF5E6B;" points="483.564,292.043 512,256 483.564,219.957 499.471,176.891 461.288,151.401 463.109,105.527
	418.917,93.083 406.473,48.891 360.599,50.712 335.109,12.529 292.043,28.437 256,0 219.957,28.437 176.891,12.529 151.401,50.712
	105.527,48.891 93.083,93.083 48.891,105.527 50.712,151.401 12.529,176.891 28.436,219.957 0,256 28.436,292.043 12.529,335.109
	50.712,360.599 48.891,406.473 93.083,418.917 105.527,463.109 151.401,461.288 176.891,499.47 219.957,483.564 256,512
	292.043,483.564 335.109,499.47 360.599,461.288 406.473,463.109 418.917,418.917 463.109,406.473 461.288,360.599 499.471,335.109
	"/>
<circle style="fill:#FFCE1C;" cx="256" cy="256" r="205.233"/>

<g>
</g>
<g>
</g>
<g>
</g>
<g>
</g>
<g>
</g>
<g>
</g>
<g>
</g>
<g>
</g>
<g>
</g>
<g>
</g>
<g>
</g>
<g>
</g>
<g>
</g>
<g>
</g>
<g>
</g>
</svg>
